{"title":"On the Road (2012) DVDRip H264-AC3-AVI Fr NL Subs","uid":7745562,"size":1486506908,"categoryP":"video","categoryS":"movies","magnet":"?xt=urn:btih:80856d631d35441aafce98dcfcadee8c1253bb1b&amp;dn=On+the+Road+%282012%29+DVDRip+H264-AC3-AVI+Fr+NL+Subs&amp;tr=udp%3A%2F%2Ftracker.openbittorrent.com%3A80&amp;tr=udp%3A%2F%2Fopen.demonii.com%3A1337&amp;tr=udp%3A%2F%2Ftracker.coppersurfer.tk%3A6969&amp;tr=udp%3A%2F%2Fexodus.desync.com%3A6969","seeders":1,"leechers":0,"uploader":"NLUPPER002","files":-1,"time":1350755719,"description":"On the Road (2012) DVDRip H264-AC3-AVI Fr NL Subs\n.\nR 124 min  -  Adventure | Drama  -   24 May 2012 (Netherlands)\n. &lt;a href=&quot;\nhttp://www.imdb.com/title/tt0337692/&quot; rel=&quot;nofollow&quot; target=&quot;_NEW&quot;&gt;\nhttp://www.imdb.com/title/tt0337692/&lt;/a&gt;\n. &lt;a href=&quot;\nhttp://www.moviemeter.nl/film/72074&quot; rel=&quot;nofollow&quot; target=&quot;_NEW&quot;&gt;\nhttp://www.moviemeter.nl/film/72074&lt;/a&gt;\n.\nYoung writer Sal Paradise has his life shaken by the arrival of free-spirited\nDean Moriarty and his girl, Marylou. As they travel across the country,\nthey encounter a mix of people who each impact their journey indelibly. \n.\nSource: Retail DVD9\nFormat: AVI\nAudio: English 5.1\nSubtitles: Dutch,French \n.\nGeneral\n.\nFormat/Info                              : Advanced Video Codec\nFormat profile                           : &lt;a class=&quot;__cf_email__&quot; href=&quot;/cdn-cgi/l/email-protection&quot; data-cfemail=&quot;b2fadbd5daf2fe819c83&quot;&gt;[email&amp;#160;protected]&lt;/a&gt;&lt;script cf-hash='f9e31' type=&quot;text/javascript&quot;&gt;\n/* &lt;![CDATA[ */!function(){try{var t=&quot;currentScript&quot;in document?document.currentScript:function(){for(var t=document.getElementsByTagName(&quot;script&quot;),e=t.length;e--;)if(t[e].getAttribute(&quot;cf-hash&quot;))return t[e]}();if(t&amp;&amp;t.previousSibling){var e,r,n,i,c=t.previousSibling,a=c.getAttribute(&quot;data-cfemail&quot;);if(a){for(e=&quot;&quot;,r=parseInt(a.substr(0,2),16),n=2;a.length-n;n+=2)i=parseInt(a.substr(n,2),16)^r,e+=String.fromCharCode(i);e=document.createTextNode(e),c.parentNode.replaceChild(e,c)}}}catch(u){}}();/* ]]&gt; */&lt;/script&gt;\nFormat settings, CABAC                   : Yes\nFormat settings, ReFrames                : 10 frames\nCodec ID                                 : H264\nDuration                                 : 2h 13mn\nBit rate                                 : 1 001 Kbps\nWidth                                    : 712 pixels\nHeight                                   : 296 pixels\nDisplay aspect ratio                     : 2.40:1\nFrame rate                               : 25.000 fps\nColor space                              : YUV\nChroma subsampling                       : 4:2:0\nBit depth                                : 8 bits\nScan type                                : Progressive\nBits/(Pixel*Frame)                       : 0.190\nStream size                              : 959 MiB (69%)\nWriting library                          : x264 core 93 r1538bm bd72d46\nEncoding settings                        : cabac=1 / ref=10 / deblock=1:-2:-1 / analyse=0x3:0x133 / me=umh / subme=6 / psy=1 / psy_rd=1.00:0.00 / mixed_ref=1 / me_range=16 / chroma_me=1 / trellis=2 / 8x8dct=1 / cqm=0 / deadzone=21,11 / fast_pskip=0 / chroma_qp_offset=-2 / threads=8 / sliced_threads=0 / nr=0 / decimate=1 / interlaced=0 / constrained_intra=0 / bframes=16 / b_pyramid=2 / b_adapt=1 / b_bias=0 / direct=1 / wpredb=1 / wpredp=2 / keyint=250 / keyint_min=25 / scenecut=40 / intra_refresh=0 / rc_lookahead=40 / rc=2pass / mbtree=1 / bitrate=1001 / ratetol=1.0 / qcomp=0.60 / qpmin=10 / qpmax=51 / qpstep=4 / cplxblur=20.0 / qblur=0.5 / ip_ratio=1.40 / aq=1:1.00\n\nAudio\nFormat                                   : AC-3\nFormat/Info                              : Audio Coding 3\nMode extension                           : CM (complete main)\nFormat settings, Endianness              : Big\nCodec ID                                 : 2000\nDuration                                 : 2h 13mn\nBit rate mode                            : Constant\nBit rate                                 : 448 Kbps\nChannel(s)                               : 6 channels\nChannel positions                        : Front: L C R, Side: L R, LFE\nSampling rate                            : 48.0 KHz\nBit depth                                : 16 bits\nCompression mode                         : Lossy\nStream size                              : 429 MiB (31%)\nAlignment                                : Split accross interleaves\nInterleave, duration                     : 40 ms (1.00 video frame)\nInterleave, preload duration             : 500 ms\n.\nEnjoy\t\t","torrent":{"xt":"urn:btih:80856d631d35441aafce98dcfcadee8c1253bb1b","amp;dn":"On+the+Road+%282012%29+DVDRip+H264-AC3-AVI+Fr+NL+Subs","amp;tr":["udp%3A%2F%2Ftracker.openbittorrent.com%3A80","udp%3A%2F%2Fopen.demonii.com%3A1337","udp%3A%2F%2Ftracker.coppersurfer.tk%3A6969","udp%3A%2F%2Fexodus.desync.com%3A6969"],"infoHash":"80856d631d35441aafce98dcfcadee8c1253bb1b","infoHashBuffer":{"type":"Buffer","data":[128,133,109,99,29,53,68,26,175,206,152,220,252,173,238,140,18,83,187,27]},"announce":[],"urlList":[]}}